<svg xmlns="http://www.w3.org/2000/svg" width="1200" height="700" viewBox="0 0 1200 700">
  <rect width="1200" height="700" fill="#ffffff"/>
  <rect x="80" y="120" width="240" height="220" rx="24" fill="#eaf2fb" stroke="#0f4577" stroke-width="5"/>
  <rect x="480" y="120" width="240" height="220" rx="24" fill="#f5f7fa" stroke="#0f4577" stroke-width="5"/>
  <rect x="880" y="120" width="240" height="220" rx="24" fill="#fff3df" stroke="#c38700" stroke-width="5"/>
  <rect x="280" y="430" width="640" height="150" rx="26" fill="#f5f7fa" stroke="#0f4577" stroke-width="5"/>
  <line x1="320" y1="230" x2="480" y2="230" stroke="#0f4577" stroke-width="8"/>
  <line x1="720" y1="230" x2="880" y2="230" stroke="#0f4577" stroke-width="8"/>
  <line x1="600" y1="340" x2="600" y2="430" stroke="#0f4577" stroke-width="8"/>
  <circle cx="320" cy="230" r="12" fill="#0f4577"/>
  <circle cx="480" cy="230" r="12" fill="#0f4577"/>
  <circle cx="720" cy="230" r="12" fill="#0f4577"/>
  <circle cx="880" cy="230" r="12" fill="#0f4577"/>
  <circle cx="600" cy="430" r="12" fill="#0f4577"/>
  <text x="200" y="210" font-family="Arial, sans-serif" font-size="36" font-weight="700" text-anchor="middle" fill="#0f4577">Raw Papers</text>
  <text x="200" y="255" font-family="Arial, sans-serif" font-size="26" text-anchor="middle" fill="#1f2933">PDFs and URLs</text>
  <text x="600" y="210" font-family="Arial, sans-serif" font-size="36" font-weight="700" text-anchor="middle" fill="#0f4577">Asset Parser</text>
  <text x="600" y="255" font-family="Arial, sans-serif" font-size="26" text-anchor="middle" fill="#1f2933">text + figures + tables</text>
  <text x="1000" y="210" font-family="Arial, sans-serif" font-size="36" font-weight="700" text-anchor="middle" fill="#8a5d00">Deck Spec</text>
  <text x="1000" y="255" font-family="Arial, sans-serif" font-size="26" text-anchor="middle" fill="#1f2933">layout-ready JSON</text>
  <text x="600" y="500" font-family="Arial, sans-serif" font-size="38" font-weight="700" text-anchor="middle" fill="#0f4577">Editable SNUPI PPTX Draft</text>
  <text x="600" y="545" font-family="Arial, sans-serif" font-size="26" text-anchor="middle" fill="#1f2933">validated with render, overflow, and font checks</text>
</svg>
